<?xml version="1.0" standalone="no"?>
<svg viewBox="0 0 200 200" xmlns="http://www.w3.org/2000/svg">
  <path fill="#47A831" d="M27.4,-47.8C29.7,-46.1,21.9,-27.1,27.6,-16.3C33.3,-5.4,52.5,-2.7,62.2,5.6C71.9,13.9,72,27.8,61.1,29.5C50.2,31.3,28.1,21,16.1,18.9C4.1,16.8,2,23,-1.1,24.8C-4.2,26.7,-8.5,24.4,-11.7,21.4C-15,18.4,-17.3,14.9,-24.8,11.2C-32.3,7.6,-45,3.8,-45.6,-0.4C-46.3,-4.5,-34.9,-9.1,-31.8,-20.4C-28.7,-31.7,-33.9,-49.7,-30,-50.4C-26.1,-51.2,-13,-34.5,-0.3,-34.1C12.5,-33.7,25.1,-49.4,27.4,-47.8Z" transform="translate(100 100)" />
</svg>
