<?xml version="1.0" standalone="no"?>
<svg viewBox="0 0 200 200" xmlns="http://www.w3.org/2000/svg">
  <path fill="#9BC017" d="M34.6,-70.7C39.6,-57.2,34.5,-37.1,38.4,-24.2C42.2,-11.3,54.9,-5.7,52.2,-1.6C49.5,2.5,31.3,5.1,26.2,15.7C21.1,26.4,29,45.2,26.8,57.5C24.6,69.9,12.3,75.7,1.2,73.7C-10,71.7,-20,61.8,-31.1,54.6C-42.2,47.5,-54.5,43,-61.1,34.3C-67.7,25.7,-68.6,12.8,-62.4,3.6C-56.2,-5.7,-42.8,-11.3,-33.6,-15.5C-24.4,-19.6,-19.4,-22.2,-14.5,-35.8C-9.6,-49.3,-4.8,-73.8,5,-82.5C14.9,-91.3,29.7,-84.3,34.6,-70.7Z" transform="translate(100 100)" />
</svg>
