<?xml version="1.0" standalone="no"?><svg xmlns="http://www.w3.org/2000/svg" viewBox="0 0 1440 320"><path fill="#24B49C" fill-opacity="0.4" d="M0,96L15,96C30,96,60,96,90,112C120,128,150,160,180,181.3C210,203,240,213,270,213.3C300,213,330,203,360,186.7C390,171,420,149,450,133.3C480,117,510,107,540,112C570,117,600,139,630,122.7C660,107,690,53,720,58.7C750,64,780,128,810,170.7C840,213,870,235,900,234.7C930,235,960,213,990,202.7C1020,192,1050,192,1080,176C1110,160,1140,128,1170,117.3C1200,107,1230,117,1260,133.3C1290,149,1320,171,1350,192C1380,213,1410,235,1425,245.3L1440,256L1440,320L1425,320C1410,320,1380,320,1350,320C1320,320,1290,320,1260,320C1230,320,1200,320,1170,320C1140,320,1110,320,1080,320C1050,320,1020,320,990,320C960,320,930,320,900,320C870,320,840,320,810,320C780,320,750,320,720,320C690,320,660,320,630,320C600,320,570,320,540,320C510,320,480,320,450,320C420,320,390,320,360,320C330,320,300,320,270,320C240,320,210,320,180,320C150,320,120,320,90,320C60,320,30,320,15,320L0,320Z"></path></svg>